<svg version="1.0" xmlns="http://www.w3.org/2000/svg"
 width="421.000000pt" height="407.000000pt" viewBox="0 0 421.000000 407.000000"
 preserveAspectRatio="xMidYMid meet">

<g transform="translate(0.000000,407.000000) scale(0.100000,-0.100000)"
fill="#5932A6" stroke="none">
<path d="M1922 4060 c-433 -42 -816 -197 -1147 -463 -107 -86 -296 -284 -369
-387 -142 -198 -253 -420 -316 -632 -191 -643 -61 -1335 352 -1869 235 -304
605 -570 961 -689 59 -20 73 -21 107 -11 65 19 70 38 70 277 0 175 -2 205 -14
201 -8 -3 -60 -11 -115 -17 -216 -24 -401 33 -509 156 -21 24 -64 94 -95 157
-63 127 -120 198 -209 258 -32 22 -66 51 -75 66 -16 25 -16 26 6 44 31 25 114
25 183 -1 82 -31 158 -97 228 -200 70 -102 120 -147 202 -185 98 -45 257 -43
364 4 36 16 42 24 48 60 8 55 50 147 86 193 l30 36 -43 7 c-418 63 -665 212
-796 480 -78 160 -106 298 -106 525 0 141 4 176 23 243 27 96 75 192 137 276
l47 63 -18 72 c-33 130 -18 322 35 460 l12 29 77 -6 c114 -8 262 -66 430 -169
l67 -41 110 22 c170 33 247 40 420 40 173 0 250 -7 420 -40 l110 -22 67 41
c168 103 316 161 430 169 l77 6 12 -29 c53 -138 68 -329 35 -461 l-18 -72 45
-58 c57 -75 111 -182 137 -275 27 -95 36 -272 21 -405 -54 -466 -294 -724
-764 -823 -51 -11 -104 -20 -119 -20 -57 0 -60 -8 -23 -57 38 -49 71 -130 86
-207 5 -27 9 -201 9 -388 0 -379 1 -387 65 -408 44 -15 72 -8 210 47 642 258
1123 836 1259 1513 117 578 -9 1150 -360 1641 -74 104 -269 307 -375 390 -307
243 -652 392 -1026 445 -134 18 -364 25 -481 14z"/>
<path d="M747 1104 c-11 -11 5 -34 23 -34 27 0 34 17 11 29 -23 13 -26 13 -34
5z"/>
<path d="M830 1016 c0 -20 27 -39 45 -32 13 4 14 10 5 26 -12 23 -50 27 -50 6z"/>
<path d="M917 923 c-12 -11 -8 -31 9 -47 23 -23 44 -20 44 7 0 35 -33 60 -53
40z"/>
<path d="M1013 795 c-7 -20 24 -55 49 -55 25 0 24 46 -1 60 -27 14 -41 13 -48
-5z"/>
<path d="M1153 704 c-7 -19 21 -44 49 -44 24 0 34 26 18 45 -17 20 -59 19 -67
-1z"/>
<path d="M1492 698 c-17 -17 -15 -26 9 -38 26 -14 72 12 63 35 -7 18 -55 20
-72 3z"/>
<path d="M1331 681 c-18 -12 -7 -41 16 -42 47 -3 71 15 51 38 -12 15 -47 17
-67 4z"/>
</g>
</svg>
